<?xml version="1.0" standalone="no"?>
<!DOCTYPE svg PUBLIC "-//W3C//DTD SVG 20010904//EN"
 "http://www.w3.org/TR/2001/REC-SVG-20010904/DTD/svg10.dtd">
<svg version="1.0" xmlns="http://www.w3.org/2000/svg"
 width="114.000000pt" height="120.000000pt" viewBox="0 0 114.000000 120.000000"
 preserveAspectRatio="xMidYMid meet">

<g transform="translate(0.000000,120.000000) scale(0.100000,-0.100000)"
fill="#000000" stroke="none">
<path d="M29 893 c-11 -12 -14 -56 -14 -181 l0 -165 30 -10 c17 -5 93 -51 170
-102 77 -51 156 -96 175 -100 19 -4 38 -13 42 -19 4 -6 8 69 8 167 l0 177
-135 0 -135 0 -1 103 c-1 66 -4 93 -9 77 -4 -14 -8 -19 -9 -12 -1 6 -5 12 -11
12 -5 0 -26 11 -46 25 -20 14 -41 22 -47 18 -6 -4 -8 0 -4 10 8 21 3 22 -14 0z"/>
<path d="M670 324 l0 -326 33 20 c17 11 107 63 199 117 92 53 177 108 188 122
16 21 20 41 20 104 0 78 -6 112 -19 104 -11 -6 -80 17 -136 47 -55 28 -140
112 -130 128 4 6 -25 10 -74 10 l-81 0 0 -326z"/>
</g>
</svg>
